<svg viewBox="0 0 49 48" fill="none" xmlns="http://www.w3.org/2000/svg" class="h-auto w-full md:hidden"><path fill-rule="evenodd" clip-rule="evenodd" d="M38.307 26.746c.456.994 1.8 1.345 2.573.572l1.416-1.417a3.75 3.75 0 1 1 5.303 5.304L36.147 42.658A14.968 14.968 0 0 1 24.669 48a14.974 14.974 0 0 1-11.825-5.77L1.82 31.206a3.75 3.75 0 0 1 5.303-5.303l1.396 1.395c.755.756 2.068.416 2.514-.555.089-.192.137-.398.137-.61V9a3.75 3.75 0 1 1 7.5 0v8.668c0 .745.763 1.251 1.474 1.027.45-.143.776-.552.776-1.024V3.75a3.75 3.75 0 1 1 7.5 0v13.921c0 .472.325.881.774 1.024.711.224 1.475-.282 1.475-1.027V9a3.75 3.75 0 1 1 7.5 0v17.125c0 .215.049.425.139.621Z" fill="#FF3D23"></path><path d="M36.668 34.5s-5.372 7.5-12 7.5c-6.627 0-12-7.5-12-7.5s5.373-7.5 12-7.5c6.628 0 12 7.5 12 7.5Z" fill="#D5FF5C"></path><path d="M30.303 34.5a5.634 5.634 0 1 1-11.267 0 5.634 5.634 0 0 1 11.267 0Z" stroke="#FF3D23" stroke-width="0.733"></path><path d="M28.052 34.5a3.384 3.384 0 1 1-6.767 0 3.384 3.384 0 0 1 6.767 0Z" stroke="#FF3D23" stroke-width="0.733"></path><path d="M32.553 34.5a7.884 7.884 0 1 1-15.767 0 7.884 7.884 0 0 1 15.767 0Z" stroke="#FF3D23" stroke-width="0.733"></path><path d="M34.802 34.5c0 5.597-4.537 10.134-10.134 10.134-5.596 0-10.133-4.537-10.133-10.134s4.537-10.134 10.133-10.134c5.597 0 10.134 4.537 10.134 10.134Z" stroke="#FF3D23" stroke-width="0.733"></path><path d="M25.803 34.5a1.134 1.134 0 1 1-2.267 0 1.134 1.134 0 0 1 2.267 0Z" fill="#162BEB" stroke="#FF3D23" stroke-width="0.733"></path><circle cx="24.669" cy="34.5" fill="#FF3D23" r="1.5"></circle><path d="M13.201 34.597a18.31 18.31 0 0 1-.075-.097l.075-.097a24.893 24.893 0 0 1 3.221-3.376c2.15-1.856 5.065-3.66 8.246-3.66s6.097 1.804 8.246 3.66a24.906 24.906 0 0 1 3.222 3.376l.075.097-.075.097a24.906 24.906 0 0 1-3.221 3.376c-2.15 1.856-5.066 3.66-8.247 3.66-3.18 0-6.096-1.804-8.245-3.66a24.903 24.903 0 0 1-3.222-3.376Z" stroke="#D5FF5C" stroke-width="0.733"></path></svg>
